Patient4_TMGait_0pt5_02_right_24_EMG.mot
version=1
nRows=39
nColumns=33
inDegrees=no
endheader
time	1LAddLong	2LGlutMax	3LGlutMed	4LIliopsoas	5LSemiMemb	6LBicFemLong	7LRecFem	8LVastMed	9LVastLat	10LGasMed	11LTibAnt	12lTibPost	13LPeroneusLong	14LSol	15LExtDigLong	16LFlexDigLong	17RAddLong	18RGlutMax	19RGlutMed	20RIliopsoas	21RSemiMemb	22RBicFemLong	23RRecFem	24RVastMed	25RVastLat	26RGasMed	27RTibAnt	28RTibPost	29RPeroneusLong	30RSol	31RExtDigLong	32RFlexDigLong
32.65	-0.00351	0.027161	0.007782	0.011444	0.016174	0.008392	0.19333	0.007477	0.049744	-0.008545	0.033264	0.001373	0.002594	-0.088043	-0.46906	-0.00885	0.00351	0.050354	-0.080414	0.039215	0.030365	-0.084534	-0.032043	-0.10208	0.028381	-0.001373	0.009766	-0.00946	-0.17456	-0.004425	0	-0.008545
32.651	0.004883	0.035095	0.007935	0.003662	0.021362	0.008392	0.20218	0.001526	0.035095	-0.022888	0.008087	0.004883	0.015869	-0.092316	-0.30395	-0.00061	-0.055389	-0.007172	-0.19898	0.050049	-0.018616	-0.033722	-0.011444	-0.12787	0.018768	0.003815	0.033112	-0.009155	-0.31906	-0.000458	0.002441	-0.007782
32.652	0.005951	0.043335	0.010834	0.012817	0.021667	-0.003815	0.15793	0.005341	0.032654	0.001984	-0.076904	0.001526	0.065765	-0.084381	-0.28625	0.00412	-0.093079	-0.020599	-0.092163	0.077667	-0.053558	0.053406	-0.03006	-0.076141	0.01709	0.002747	0.041046	-0.008087	0.023956	0.006256	0.002136	-0.015717
32.653	0.001373	0.01358	0.014496	0.007629	0.022278	-0.007019	0.17548	0.001373	0.061035	-0.002136	-0.18875	0.005646	0.089417	-0.090485	-0.32044	-0.003052	-0.1149	-0.028992	0.022583	0.0737	-0.021515	0.043335	-0.050201	-0.086212	0.010986	-0.001526	0.041504	-0.005493	0.15869	0.045013	-0.000305	-0.013123
32.654	0.006409	0.006714	0.010223	0.000305	0.015869	-0.007782	0.16022	-0.000153	0.060272	0.006866	-0.20554	0.006866	0.052185	-0.10101	-0.28305	-0.017395	-0.084381	-0.011139	0.000153	0.034943	0.039825	0.018311	-0.036774	-0.050659	0.015411	0.001831	0.028687	-0.007324	0.29159	0.028229	-0.000458	-0.010681
32.655	0.007019	0.015411	0.019836	-0.005188	0.020294	-0.012665	0.1416	0.00473	0.056763	0.054169	-0.16052	0.005035	0.031433	-0.10544	-0.13153	-0.000763	-0.064392	-0.016785	0.11139	-0.027161	0.030365	-0.018311	-0.053406	0.013275	0.031281	-0.001526	0.040894	-0.008087	0.3392	0.006714	-0.000305	-0.011139
32.656	0.006256	-0.00412	-0.000916	0.000305	0.016327	-0.018311	0.15579	0.007629	0.060883	0.020294	-0.11978	0.005646	0.05127	-0.027771	-0.018158	-0.000763	-0.05127	-0.037689	-0.005646	0.003204	-0.065613	-0.01709	-0.041504	0.034637	0.045013	-0.00885	0.032654	-0.000916	0.30456	-0.011749	0.000305	-0.012054
32.657	0.001831	0.006866	-0.015564	0.002899	0.003662	-0.002899	0.16312	0.000153	0.054932	0.012207	0.12436	0.001984	0.006714	-0.007019	0.011902	-0.004578	-0.024567	-0.053253	0.059509	0.005188	-0.045776	0.025787	-0.033722	-0.006561	0.044403	-0.010071	0.025787	-0.00412	-0.16968	0.005035	-0.000153	-0.018463
32.658	0.006104	-0.020447	-0.014038	0.000458	0.046692	-0.018463	0.1796	0.002594	0.045776	0.002136	0.17593	0.007477	0.0177	0.004272	0.094147	-0.000763	0.038605	0.001984	0.073242	-0.006866	0.057831	0.014343	-0.03479	0.02243	0.036163	-0.007019	0.009613	-0.005493	-0.36224	-0.017853	0.000458	-0.015411
32.659	-0.000153	0.03006	0.007782	0.001984	0.029144	-0.013428	0.1889	-0.003967	0.031433	-0.014648	0.13123	0.00412	0.029907	-0.019684	0.41885	-0.005188	0.071716	-0.027618	-0.090179	0.001221	0.021515	-0.042725	-0.050659	-0.025177	0.022736	-0.006866	-0.022278	-0.006256	0.41672	0.013123	-0.000305	-0.016785
32.66	0.005493	-0.000305	0.033417	-0.00824	0.035095	-0.019684	0.16968	-0.002899	-0.000305	0.014954	0.11673	0.007935	-0.033417	-0.003967	0.37643	0.003052	0.077667	-0.027161	-0.12985	0.050201	-0.058746	-0.018463	-0.031281	-0.035858	0.015869	-0.00885	0.018768	-0.001068	0.13687	0.022278	-0.000305	-0.012207
32.661	0.001068	-0.025024	0.054016	-0.001526	0.019379	-0.015411	0.1683	0.007477	0.009308	0.026093	-0.091858	0.003815	-0.07019	0.022583	0.32349	0.009613	0.005646	-0.006409	-0.24063	0.066528	-0.12375	0.046234	-0.025482	0.010071	0.019226	-0.00946	0.05249	-0.003052	-0.21271	-0.001984	-0.002899	-0.011139
32.662	-0.001984	0.012665	0.003204	0.002747	0.00885	-0.006409	0.18204	0.006256	-0.002899	0.010834	-0.035248	0.005035	-0.053253	0.1236	0.19134	-0.003967	-0.039063	-0.009155	-0.31342	0.027313	-0.13641	0.12451	-0.055542	-0.015564	0.02121	-0.000458	0.045471	-0.00061	-0.22903	-0.031586	-0.001831	-0.006714
32.663	-0.000153	0.027161	0.008087	0.008087	0.024109	-0.006561	0.21286	-0.001373	0.004883	0.001221	0.16678	0.000153	-0.002289	0.18784	-0.052032	-0.014038	-0.022888	0.030975	-0.29678	-0.024872	0.085297	0.112	-0.048523	-0.078735	0.005341	-0.00061	0.032349	-0.002594	0.019531	0.009918	-0.002899	-0.006409
32.664	0.002289	0.027313	-0.035095	0.005951	0.016785	-0.012665	0.20157	-0.002594	0.011292	0.004425	0.28336	0.009003	-0.009308	-0.003204	-0.22278	-0.013733	-0.019226	0.003357	-0.08316	-0.032349	0.14725	0.089417	-0.031281	-0.076141	0.005035	0.00061	0.015411	-0.000305	0.21561	0.13779	0.001526	-0.009308
32.665	0.001984	0.001373	-0.010223	0.001526	0.009918	-0.016479	0.22675	0.005493	-0.008087	0.00473	0.15045	0.009918	0.016327	-0.11963	-0.23438	-0.001373	0.013885	0.006561	0.30304	-0.005798	0.015869	0.080109	-0.031738	-0.063171	0.011749	-0.005493	0.026703	-0.005951	0.11566	0.038452	0.000916	-0.011444
32.666	-0.00061	0.028992	0.024872	0.002289	0.02121	-0.003967	0.24002	-0.00351	0.011902	0.017548	0.046997	0	0.018158	-0.12222	-0.17349	-0.012817	0.046692	-0.018158	0.31509	0.029144	-0.082703	0.06958	-0.027771	-0.043793	-0.00061	-0.006104	0.027771	-0.001984	0.073395	-0.076599	0.001221	-0.011292
32.667	-0.001526	0.050354	0.075226	0.004578	0.015869	0.005035	0.27283	0.007324	0.034332	0.000763	-0.044556	0.004883	-0.009003	-0.12375	-0.1358	-0.009613	0.058441	-0.027161	0.15167	0.025787	-0.14404	0.054169	-0.022125	-0.067291	0.024567	-0.001678	0.020599	-0.003662	0.034943	-0.053864	-0.000916	-0.00885
32.668	0.003357	0.041656	0.03418	-0.00473	0.022583	-0.004578	0.30106	-0.002899	0.046692	0.002747	-0.15381	0.002136	0.008087	-0.09964	-0.080872	-0.007172	0.040436	-0.028381	0.10803	0.017853	-0.20569	-0.050354	-0.001526	-0.044098	0.018311	-0.003052	0.011597	0.007172	0.000763	-0.000153	-0.001373	-0.00412
32.669	0.004883	0.019379	0.01358	-0.002136	0.016174	-0.000305	0.28351	-0.003815	0.039978	0.011902	-0.1294	0.007782	0.006256	-0.078125	-0.040588	-0.00351	0.034027	0.021057	-0.003357	-0.018921	-0.20813	-0.11139	-0.036621	-0.067902	0.014343	-0.001831	0.000458	-0.001984	0.24857	0.009613	-0.001221	-0.010834
32.67	-0.002136	0.023041	-0.034943	0.000763	0.016937	0.004272	0.25101	0.004883	-0.010223	0.008698	-0.13641	0.002899	0.00473	-0.059204	-0.020294	-0.005951	0.033569	-0.006104	0.036621	-0.064697	-0.20767	-0.077209	-0.046082	-0.041656	0.017395	-0.001984	0.006866	0.000153	0.25711	0.059204	0.001373	-0.005798
32.671	0.004578	0.061951	-0.035706	0.000916	0.021362	-0.016785	0.27069	0.006561	-0.027924	-0.002747	-0.087128	0.002747	0.019379	-0.022583	0.010834	-0.051575	0.018616	-0.035858	-0.29404	-0.010376	0.087128	-0.11948	-0.079041	-0.016937	0.02594	0.002899	0.022278	-0.004272	0.13519	0.050049	-0.001068	-0.009308
32.672	0.000763	0.052643	0.10483	-0.00946	0.01709	-0.016327	0.25024	-0.022736	-0.029907	-0.007477	-0.045166	0.003357	-0.003357	0.023804	0.040131	-0.033569	-0.014343	0.014191	-0.49271	0.0354	0.2504	-0.1181	-0.079346	0.001068	0.007935	0.007019	0.03952	0.002289	0.10086	0.062714	-0.000916	-0.001526
32.673	-0.001678	0.054626	0.074463	0.016174	0.020599	-0.00351	0.24231	0.075073	-0.049744	-0.018616	-0.016022	0.006409	-0.083313	0.066681	0.11047	0.026245	-0.036774	-0.000153	-0.3894	0.08316	0.12634	-0.06958	-0.091095	0.001068	0.014801	0.002594	0.037994	-0.005341	0.40512	0.032349	0.001831	-0.010986
32.674	0.00473	0.046997	0.006409	0.002747	0.021973	-0.007935	0.23697	0.009003	0.010071	-0.002441	0.024414	-0.000916	-0.088806	0.061188	0.068665	0.057373	0.002441	0.014648	-0.50613	0.11078	0.23621	-0.034485	-0.05661	0.054932	0.021515	-0.000458	0.070038	-0.000305	0.34042	-0.011597	0.000153	-0.012665
32.675	0.008087	0.061951	0.020142	-0.003204	0.014343	-0.011902	0.20798	0.001984	0.03006	-0.003662	0.035248	0.002136	-0.010681	0.066223	0.022736	0.029602	-0.00412	0.069275	0.33005	-0.082245	0.12421	0.091248	-0.080109	0.059662	0.039978	-0.003662	0.050507	-0.002136	0.10666	-0.011139	-0.000153	-0.018311
32.676	0.011597	0.076447	0.035858	-0.009155	0.018463	-0.00946	0.19134	-0.004272	0.028839	0.028687	0.010071	0.002747	0.022888	0.033722	0.013123	-0.001831	0.007324	0.024872	0.87296	-0.11444	-0.02594	0.13886	-0.059357	0.07019	0.029602	0.000305	-0.093842	-0.001373	0.20599	-0.022125	-0.001221	-0.008392
32.677	0.010681	0.072937	0.03418	-0.001526	0.010681	-0.020599	0.20645	-0.005035	-0.002136	0.034485	-0.011139	0.004425	0.00061	-0.035553	0.014191	-0.000305	-0.007629	-0.023346	0.31677	-0.063477	-0.048218	0.082397	-0.063171	0.041809	0.032959	0.004578	-0.081329	-0.001068	-0.26413	0.003052	-0.002136	-0.013275
32.678	0.009308	0.06546	0.061951	-0.008087	0.019836	-0.008087	0.19348	-0.002899	-0.031738	0.043793	-0.007477	0.001984	0.009155	-0.021515	-0.000153	-0.005646	0.003052	-0.059967	0.21423	0.022278	-0.17792	0.063324	-0.073395	0.023499	0.01297	-0.002747	0.031891	-0.000458	-0.65704	0.012054	-0.002441	-0.001831
32.679	-0.001831	0.077667	0.058289	0.004425	0.019684	0.00351	0.19699	-0.001526	-0.046387	0.029907	0.038605	0.007782	0.033112	0.043793	0.03479	-0.011749	0.039825	-0.049896	0.15564	0.10742	-0.23834	0.029449	-0.031433	-0.064545	0.012512	-0.001068	0.01358	-0.004883	-0.33554	-0.020752	0.001526	-0.00061
32.68	0.004272	0.067902	0.053406	0.026703	0.007324	-0.002289	0.22492	-0.003967	-0.027313	0.023956	0.10391	0.004425	0.015411	0.032654	0.026245	-0.005646	0.06546	-0.090485	0.085602	0.12726	-0.31754	0.052338	0.015869	-0.12955	-0.009918	0.000153	-0.004272	-0.006866	0.10788	-0.014648	-0.002136	-0.001678
32.681	0.005646	0.061646	0.078735	0.011749	0.021057	0.000916	0.20676	0.004272	0.007629	0.012054	0.056305	-0.001221	0.025482	0.023499	0.63568	-0.007324	0.04776	-0.080719	-0.005341	0.062408	-0.38956	0.10284	0.002899	-0.14542	-0.010376	0	-0.008392	0.002136	0.48843	0.029297	0.008087	-0.002899
32.682	-0.004578	0.052185	0.037384	0.019989	0.014038	-0.006714	0.25772	0.005951	-0.030212	0.02243	0.03891	0.011597	-0.011597	0.007629	0.8696	-0.005646	0.029755	-0.048828	-0.088196	0.021515	-0.44952	0.17242	-0.032959	0.036163	0.020142	-0.001526	-0.004578	-0.001526	0.40161	0.028381	-0.002441	0.004883
32.683	0.000763	0.031891	-0.001984	0.007782	0.016632	0.001373	0.24963	0.011139	-0.063324	0.017395	-0.043945	0.005646	-0.034332	0.008698	0.46265	-0.009155	-0.014648	-0.065002	-0.065613	0.00946	-0.079651	0.17303	-0.050201	0.14618	0.034637	0.002594	-0.023651	-0.005951	0.2269	-0.021057	-0.00412	-0.002136
32.684	-0.001984	0.037842	0.011597	0.00351	0.019379	0.008698	0.27481	0.006866	-0.071106	-0.001068	-0.050354	0.00473	-0.031738	0.038147	-0.24872	-0.003204	0.007172	-0.068817	-0.090027	0.025024	0.35172	0.096893	-0.030823	0.10178	0.011597	-0.00061	0.019379	-0.010223	-0.56793	0.000763	-0.000916	-0.007935
32.685	-0.010071	0.035248	0.019226	0	0.009613	0.015564	0.29373	0.003662	-0.062256	-0.029144	-0.013733	0.005493	-0.020294	0.071106	-0.43808	0.006256	0.01358	-0.054626	0.024414	0.003967	0.23712	-0.002136	-0.008545	0.063477	0.026093	-0.002289	0.0737	-0.002289	-0.88211	0.080872	0.003967	-0.007324
32.686	-0.001526	0.006409	0.055389	-0.001221	0.013123	0.011749	0.25452	0.003357	-0.065613	-0.039063	0.097961	0.010223	0.017548	0.11154	-0.47745	0.00885	0.026093	-0.085754	0.009613	0.002136	0.006409	-0.14542	0.015259	0.054474	0.025787	-0.002899	0.075531	-0.006256	-0.37796	0.092316	0.002289	-0.003204
32.687	0.001678	-0.005951	0.02655	0.012512	-0.016785	-0.013885	0.2356	0.005035	-0.052948	-0.018463	0.069733	0.006256	0.014801	0.077209	-0.3833	0.0177	0.010376	-0.06012	-0.039825	0.033112	-0.13123	-0.16602	-0.014801	-0.01297	0.015869	0.002899	0.036926	-0.005188	0.28275	0.024414	0.001984	-0.007477
32.688	-0.00473	-0.028229	-0.007172	-0.00412	-0.027771	-0.044098	0.27039	0.004425	-0.049438	0.012817	-0.045013	0.00351	-0.047302	0.002594	-0.53863	0.008698	-0.027771	-0.090942	-0.050507	0.022125	-0.20737	-0.16769	0.019379	0.015411	0.005035	0.007629	-0.000153	-0.003815	0.43549	0.002136	0	-0.003662
